<?xml version="1.0"?>
<svg xmlns="http://www.w3.org/2000/svg" xmlns:xlink="http://www.w3.org/1999/xlink" xmlns:svgjs="http://svgjs.com/svgjs" version="1.1" width="512" height="512" x="0" y="0" viewBox="0 0 32 32" style="enable-background:new 0 0 512 512" xml:space="preserve"><g><path xmlns="http://www.w3.org/2000/svg" id="XMLID_436_" d="m30 24v2.5c0 1.379-1.122 2.5-2.5 2.5h-21.5c-2.206 0-4-1.794-4-4 0 0 0-16.985 0-17 0-2.206 1.794-4 4-4h18.5c.829 0 1.5.672 1.5 1.5s-.671 1.5-1.5 1.5h-18.5c-.551 0-1 .448-1 1s.449 1 1 1h21.5c1.378 0 2.5 1.121 2.5 2.5v2.5h-5c-2.757 0-5 2.243-5 5s2.243 5 5 5z" fill="#ffffff" data-original="#000000"/><path xmlns="http://www.w3.org/2000/svg" id="XMLID_438_" d="m30 16v6h-5c-1.657 0-3-1.343-3-3s1.343-3 3-3z" fill="#ffffff" data-original="#000000"/></g></svg>
