<svg width="165" height="49" viewBox="0 0 165 49" fill="none" xmlns="http://www.w3.org/2000/svg">
<path d="M66.0412 39.696V41.0312H62.6747V39.696H66.0412ZM71.425 36.7273V44H69.6672V36.7273H71.425ZM81.1182 36.7273V44H79.6267L76.7325 39.8026H76.6864V44H74.9286V36.7273H76.4413L79.3036 40.9176H79.3639V36.7273H81.1182ZM87.3117 44H84.6235V36.7273H87.3081C88.0491 36.7273 88.6872 36.8729 89.2222 37.1641C89.7596 37.4529 90.1739 37.8696 90.4651 38.4141C90.7563 38.9562 90.9019 39.6049 90.9019 40.3601C90.9019 41.1177 90.7563 41.7687 90.4651 42.3132C90.1763 42.8577 89.7632 43.2756 89.2257 43.5668C88.6883 43.8556 88.0503 44 87.3117 44ZM86.3813 42.5014H87.2442C87.6514 42.5014 87.9959 42.4328 88.2776 42.2955C88.5617 42.1558 88.7759 41.9297 88.9203 41.6172C89.0671 41.3023 89.1405 40.8833 89.1405 40.3601C89.1405 39.8369 89.0671 39.4202 88.9203 39.1101C88.7736 38.7976 88.5569 38.5727 88.2705 38.4354C87.9864 38.2957 87.636 38.2259 87.2194 38.2259H86.3813V42.5014ZM98.728 36.7273H100.482V41.4183C100.482 41.9605 100.353 42.4328 100.095 42.8352C99.8372 43.2353 99.4773 43.5455 99.0157 43.7656C98.554 43.9834 98.0178 44.0923 97.407 44.0923C96.7891 44.0923 96.2493 43.9834 95.7877 43.7656C95.326 43.5455 94.9674 43.2353 94.7117 42.8352C94.456 42.4328 94.3282 41.9605 94.3282 41.4183V36.7273H96.086V41.2656C96.086 41.5166 96.1404 41.7403 96.2493 41.9368C96.3606 42.1333 96.5157 42.2872 96.7145 42.3984C96.9134 42.5097 97.1442 42.5653 97.407 42.5653C97.6698 42.5653 97.8994 42.5097 98.0959 42.3984C98.2948 42.2872 98.4498 42.1333 98.5611 41.9368C98.6724 41.7403 98.728 41.5166 98.728 41.2656V36.7273ZM107.915 38.9077C107.891 38.6473 107.786 38.4448 107.599 38.3004C107.414 38.1536 107.15 38.0803 106.807 38.0803C106.58 38.0803 106.391 38.1098 106.239 38.169C106.087 38.2282 105.974 38.3099 105.898 38.4141C105.822 38.5159 105.783 38.633 105.781 38.7656C105.776 38.8745 105.797 38.9704 105.845 39.0533C105.895 39.1361 105.966 39.2095 106.058 39.2734C106.153 39.335 106.266 39.3894 106.399 39.4368C106.531 39.4841 106.681 39.5256 106.846 39.5611L107.471 39.7031C107.831 39.7812 108.148 39.8854 108.423 40.0156C108.7 40.1458 108.932 40.3009 109.119 40.4808C109.308 40.6607 109.452 40.8679 109.549 41.1023C109.646 41.3366 109.695 41.5994 109.698 41.8906C109.695 42.3499 109.579 42.7441 109.35 43.0732C109.12 43.4022 108.79 43.6544 108.359 43.8295C107.931 44.0047 107.413 44.0923 106.807 44.0923C106.199 44.0923 105.668 44.0012 105.216 43.8189C104.764 43.6366 104.413 43.3596 104.162 42.9879C103.911 42.6162 103.782 42.1463 103.775 41.5781H105.458C105.472 41.8125 105.535 42.0078 105.646 42.1641C105.757 42.3203 105.91 42.4387 106.104 42.5192C106.301 42.5997 106.528 42.6399 106.786 42.6399C107.023 42.6399 107.224 42.608 107.39 42.544C107.558 42.4801 107.687 42.3913 107.777 42.2777C107.867 42.1641 107.913 42.0339 107.915 41.8871C107.913 41.7498 107.87 41.6326 107.787 41.5355C107.704 41.4361 107.577 41.3509 107.404 41.2798C107.233 41.2064 107.016 41.139 106.75 41.0774L105.99 40.8999C105.361 40.7554 104.865 40.5223 104.502 40.2003C104.14 39.8759 103.96 39.438 103.963 38.8864C103.96 38.4366 104.081 38.0424 104.325 37.7038C104.569 37.3653 104.906 37.1013 105.337 36.9119C105.768 36.7225 106.259 36.6278 106.811 36.6278C107.374 36.6278 107.863 36.7237 108.277 36.9155C108.694 37.1049 109.017 37.3712 109.247 37.7145C109.476 38.0578 109.594 38.4555 109.598 38.9077H107.915ZM112.748 38.1548V36.7273H118.895V38.1548H116.689V44H114.956V38.1548H112.748ZM122.153 44V36.7273H125.157C125.702 36.7273 126.172 36.8255 126.567 37.022C126.965 37.2161 127.272 37.4955 127.487 37.8601C127.702 38.2223 127.81 38.652 127.81 39.1491C127.81 39.6534 127.7 40.0819 127.48 40.4347C127.26 40.785 126.947 41.0526 126.542 41.2372C126.138 41.4195 125.658 41.5107 125.104 41.5107H123.204V40.1257H124.777C125.043 40.1257 125.264 40.0914 125.442 40.0227C125.621 39.9517 125.758 39.8452 125.85 39.7031C125.942 39.5587 125.988 39.3741 125.988 39.1491C125.988 38.9242 125.942 38.7384 125.85 38.5916C125.758 38.4425 125.621 38.3312 125.442 38.2578C125.262 38.1821 125.04 38.1442 124.777 38.1442H123.911V44H122.153ZM126.248 40.6761L128.059 44H126.141L124.366 40.6761H126.248ZM130.49 36.7273H132.454L133.991 39.7706H134.055L135.593 36.7273H137.557L134.897 41.571V44H133.15V41.571L130.49 36.7273ZM144.028 39.696V41.0312H140.661V39.696H144.028Z" fill="#FFA625"/>
<path d="M68.7159 29H60.6513V7.18182H68.7053C70.9283 7.18182 72.8423 7.61861 74.4474 8.49219C76.0597 9.35866 77.3026 10.6087 78.1761 12.2422C79.0497 13.8686 79.4865 15.8146 79.4865 18.0803C79.4865 20.353 79.0497 22.3061 78.1761 23.9396C77.3097 25.5732 76.0703 26.8267 74.4581 27.7003C72.8459 28.5668 70.9318 29 68.7159 29ZM65.9247 24.5043H68.5135C69.7351 24.5043 70.7685 24.2983 71.6136 23.8864C72.4659 23.4673 73.1087 22.7891 73.5419 21.8516C73.9822 20.907 74.2024 19.6499 74.2024 18.0803C74.2024 16.5107 73.9822 15.2607 73.5419 14.3303C73.1016 13.3928 72.4517 12.718 71.5923 12.3061C70.7401 11.8871 69.6889 11.6776 68.4389 11.6776H65.9247V24.5043ZM93.1229 21.9368V12.6364H98.3217V29H93.3572V25.9531H93.1868C92.8246 26.9545 92.2067 27.75 91.3331 28.3395C90.4666 28.9219 89.419 29.2131 88.1903 29.2131C87.0753 29.2131 86.0952 28.9574 85.25 28.446C84.4048 27.9347 83.7479 27.2209 83.2791 26.3047C82.8104 25.3814 82.5724 24.3018 82.5653 23.0661V12.6364H87.7749V22.0433C87.782 22.9311 88.0163 23.6307 88.478 24.142C88.9396 24.6534 89.5682 24.9091 90.3636 24.9091C90.8821 24.9091 91.3473 24.7955 91.7592 24.5682C92.1783 24.3338 92.5085 23.9964 92.75 23.5561C92.9986 23.1087 93.1229 22.5689 93.1229 21.9368ZM115.924 17.6328L111.14 17.7607C111.091 17.4197 110.956 17.1179 110.736 16.8551C110.515 16.5852 110.228 16.3757 109.873 16.2266C109.525 16.0703 109.12 15.9922 108.658 15.9922C108.055 15.9922 107.54 16.1129 107.113 16.3544C106.694 16.5959 106.488 16.9226 106.496 17.3345C106.488 17.6541 106.616 17.9311 106.879 18.1655C107.149 18.3999 107.628 18.5881 108.317 18.7301L111.471 19.3267C113.104 19.6392 114.319 20.1577 115.114 20.8821C115.917 21.6065 116.322 22.5653 116.329 23.7585C116.322 24.8807 115.988 25.8572 115.327 26.6882C114.674 27.5192 113.779 28.1655 112.643 28.6271C111.506 29.0817 110.206 29.3089 108.743 29.3089C106.407 29.3089 104.564 28.8295 103.214 27.8707C101.872 26.9048 101.105 25.6122 100.913 23.9929L106.059 23.8651C106.172 24.4616 106.467 24.9162 106.943 25.2287C107.419 25.5412 108.026 25.6974 108.765 25.6974C109.432 25.6974 109.976 25.5732 110.395 25.3246C110.814 25.076 111.027 24.7457 111.034 24.3338C111.027 23.9645 110.863 23.6697 110.544 23.4496C110.224 23.2223 109.724 23.0447 109.042 22.9169L106.187 22.3736C104.546 22.0753 103.324 21.5249 102.522 20.7223C101.719 19.9126 101.322 18.8828 101.329 17.6328C101.322 16.5391 101.613 15.6051 102.202 14.831C102.792 14.0497 103.63 13.4531 104.716 13.0412C105.803 12.6293 107.085 12.4233 108.562 12.4233C110.778 12.4233 112.525 12.8885 113.804 13.8189C115.082 14.7422 115.789 16.0135 115.924 17.6328ZM115.953 11.4645V7.18182H134.394V11.4645H127.778V29H122.58V11.4645H115.953ZM135.27 29V12.6364H140.331V15.6193H140.501C140.8 14.5398 141.286 13.7372 141.961 13.2116C142.635 12.679 143.42 12.4126 144.315 12.4126C144.557 12.4126 144.805 12.4304 145.061 12.4659C145.317 12.4943 145.555 12.5405 145.775 12.6044V17.1321C145.526 17.0469 145.199 16.9794 144.795 16.9297C144.397 16.88 144.042 16.8551 143.729 16.8551C143.111 16.8551 142.554 16.9936 142.057 17.2706C141.567 17.5405 141.18 17.9205 140.895 18.4105C140.618 18.8935 140.48 19.4616 140.48 20.1151V29H135.27ZM151.581 35.1364C150.956 35.1364 150.366 35.0866 149.812 34.9872C149.258 34.8949 148.782 34.7706 148.385 34.6143L149.535 30.8324C150.047 31.0028 150.508 31.1023 150.92 31.1307C151.339 31.1591 151.698 31.0916 151.996 30.9283C152.302 30.772 152.536 30.4915 152.699 30.0866L152.902 29.5966L147.085 12.6364H152.54L155.555 24.3125H155.725L158.782 12.6364H164.269L158.101 30.5661C157.802 31.4609 157.38 32.2493 156.833 32.9311C156.293 33.62 155.594 34.1598 154.734 34.5504C153.882 34.9411 152.831 35.1364 151.581 35.1364Z" fill="#001E37"/>
<g clip-path="url(#clip0_102_19)">
<mask id="path-3-outside-1_102_19" maskUnits="userSpaceOnUse" x="-1.15388" y="-0.15387" width="50" height="50" fill="black">
<rect fill="white" x="-1.15388" y="-0.15387" width="50" height="50"/>
<path d="M32.1618 15.1397C30.2485 13.5377 27.7038 12.4889 25.2626 12.2388V2.84781C26.1044 2.89327 26.8704 2.98334 27.6735 3.11803C27.676 3.11803 27.655 3.11887 27.6575 3.11887C28.4168 3.24682 28.8595 4.04737 28.5649 4.75784L28.538 4.82266C27.7922 6.62241 28.6743 8.68901 30.5052 9.38938C32.2696 10.0637 34.2486 9.15452 34.9725 7.41032L34.9826 7.38591C35.2755 6.67797 36.1502 6.42459 36.7773 6.86484C36.8396 6.90862 36.901 6.95239 36.9633 6.99869C37.6005 7.45662 38.2142 7.94907 38.8026 8.47519L32.1618 15.1397ZM22.8215 12.2388V7.54248V2.84613C21.8955 2.89075 21.1809 2.97913 20.3702 3.11382C20.334 3.11971 20.2886 3.12561 20.2524 3.13234C19.4813 3.26618 19.0259 4.07851 19.3256 4.80245C19.5108 5.2486 19.5966 5.7158 19.5966 6.1771C19.5966 7.45831 18.9089 8.69069 17.706 9.29257C15.8861 10.2042 13.7076 9.36917 12.9424 7.52228C12.6335 6.77645 11.7084 6.51129 11.0526 6.98185C11.0467 6.9869 11.04 6.99027 11.0341 6.99532C10.391 7.45746 9.77732 7.9516 9.19482 8.47351L15.8794 15.1388C17.7927 13.5377 20.1278 12.4889 22.8215 12.2388ZM36.6493 23.7689H46.153C46.1109 22.9271 46.0292 22.2368 45.9046 21.4666C45.8903 21.3799 45.8752 21.2957 45.8609 21.2098C45.7279 20.453 44.9316 20.0145 44.2219 20.3074L44.1293 20.347C42.2816 21.1122 40.1528 20.1626 39.5097 18.2316C38.9322 16.4958 39.8514 14.6127 41.5417 13.9132C42.2269 13.6295 42.4845 12.8028 42.104 12.1808C42.0897 12.1563 42.0746 12.1336 42.0577 12.11C41.5796 11.4383 41.0661 10.8002 40.5232 10.1941L33.8471 16.8636C35.4111 18.7855 36.4254 21.0751 36.6493 23.7689ZM14.1512 16.8653L7.47591 10.1933C6.91024 10.8255 6.38244 11.4896 5.8959 12.1782C5.89085 12.1858 5.88495 12.1934 5.8799 12.201C5.43124 12.8382 5.6905 13.728 6.41022 14.026C8.09967 14.7263 9.01973 16.6103 8.44143 18.3452C7.79915 20.2771 5.6703 21.2258 3.82176 20.4606L3.75695 20.4337C3.04649 20.1391 2.24596 20.5818 2.11801 21.3411C2.11043 21.3849 2.1037 21.4228 2.09696 21.4666C1.97322 22.2292 1.88905 22.9271 1.84612 23.7689H11.3481C11.5737 21.0751 12.588 18.7855 14.1512 16.8653ZM25.2626 37.517V47.153C25.936 47.1084 26.862 47.02 27.6735 46.8836C27.7181 46.876 27.7518 46.8676 27.7972 46.8609C28.554 46.7296 28.9883 45.9324 28.6954 45.2236L28.6819 45.1967C27.9588 43.4508 28.7148 41.4094 30.4395 40.6384C32.2292 39.8387 34.3134 40.6771 35.0584 42.4768L35.0861 42.5433C35.3698 43.2294 36.199 43.4878 36.821 43.104C36.8438 43.0897 36.8673 43.0745 36.8892 43.0594C37.561 42.5804 38.199 42.0677 38.8043 41.5248L32.0297 34.7265C30.1382 36.2653 27.7038 37.2729 25.2626 37.517ZM33.7376 32.9722L40.5232 39.7806C41.0493 39.1922 41.5426 38.5886 42.0005 37.9514C42.0468 37.8908 42.0906 37.8343 42.1343 37.7721C42.5746 37.1441 42.3221 36.2737 41.6133 35.979L41.5889 35.9706C39.8447 35.2484 38.9356 33.2693 39.6107 31.5041C40.3102 29.674 42.3768 28.7927 44.1765 29.5385L44.2413 29.5654C44.9156 29.8441 45.6698 29.4611 45.8558 28.7733C45.8659 28.7354 45.8743 28.6521 45.8802 28.6125C46.0158 27.8069 46.1058 27.0518 46.1513 26.1259H36.6266C36.3555 28.7354 35.3143 31.0882 33.7376 32.9722ZM9.1965 41.5231C9.82951 42.0896 10.492 42.6183 11.1814 43.1048C11.1949 43.1149 11.2083 43.1242 11.2218 43.1343C11.8498 43.5745 12.7244 43.322 13.0173 42.6124L13.0274 42.5896C13.7505 40.8438 15.7295 39.9363 17.4947 40.6106C19.3247 41.3109 20.2061 43.3784 19.4611 45.1773L19.4342 45.2421C19.1395 45.9526 19.584 46.7531 20.3416 46.8811C20.345 46.8811 20.3669 46.8819 20.3702 46.8819C21.1724 47.0166 21.8955 47.1067 22.8215 47.1521V37.517C20.212 37.2729 17.903 36.2653 16.0132 34.7256L9.1965 41.5231ZM11.3725 26.1259H1.84696C1.8941 27.0518 1.98922 27.876 2.13653 28.7279C2.13737 28.7312 2.13737 28.759 2.13905 28.7624C2.27037 29.5175 3.06753 29.9703 3.77631 29.6774L3.80324 29.6723C5.54909 28.9484 7.59039 29.7094 8.36146 31.4342C9.1603 33.2239 8.32274 35.3107 6.52302 36.0548L6.45652 36.0834C5.74522 36.3781 5.49437 37.2594 5.94219 37.8865C5.96071 37.9118 5.97839 37.9379 5.99775 37.9631C6.45989 38.6063 6.95317 39.2199 7.47507 39.8025L14.2615 32.9705C12.6848 31.0882 11.6427 28.7354 11.3725 26.1259Z"/>
</mask>
<path d="M32.1618 15.1397C30.2485 13.5377 27.7038 12.4889 25.2626 12.2388V2.84781C26.1044 2.89327 26.8704 2.98334 27.6735 3.11803C27.676 3.11803 27.655 3.11887 27.6575 3.11887C28.4168 3.24682 28.8595 4.04737 28.5649 4.75784L28.538 4.82266C27.7922 6.62241 28.6743 8.68901 30.5052 9.38938C32.2696 10.0637 34.2486 9.15452 34.9725 7.41032L34.9826 7.38591C35.2755 6.67797 36.1502 6.42459 36.7773 6.86484C36.8396 6.90862 36.901 6.95239 36.9633 6.99869C37.6005 7.45662 38.2142 7.94907 38.8026 8.47519L32.1618 15.1397ZM22.8215 12.2388V7.54248V2.84613C21.8955 2.89075 21.1809 2.97913 20.3702 3.11382C20.334 3.11971 20.2886 3.12561 20.2524 3.13234C19.4813 3.26618 19.0259 4.07851 19.3256 4.80245C19.5108 5.2486 19.5966 5.7158 19.5966 6.1771C19.5966 7.45831 18.9089 8.69069 17.706 9.29257C15.8861 10.2042 13.7076 9.36917 12.9424 7.52228C12.6335 6.77645 11.7084 6.51129 11.0526 6.98185C11.0467 6.9869 11.04 6.99027 11.0341 6.99532C10.391 7.45746 9.77732 7.9516 9.19482 8.47351L15.8794 15.1388C17.7927 13.5377 20.1278 12.4889 22.8215 12.2388ZM36.6493 23.7689H46.153C46.1109 22.9271 46.0292 22.2368 45.9046 21.4666C45.8903 21.3799 45.8752 21.2957 45.8609 21.2098C45.7279 20.453 44.9316 20.0145 44.2219 20.3074L44.1293 20.347C42.2816 21.1122 40.1528 20.1626 39.5097 18.2316C38.9322 16.4958 39.8514 14.6127 41.5417 13.9132C42.2269 13.6295 42.4845 12.8028 42.104 12.1808C42.0897 12.1563 42.0746 12.1336 42.0577 12.11C41.5796 11.4383 41.0661 10.8002 40.5232 10.1941L33.8471 16.8636C35.4111 18.7855 36.4254 21.0751 36.6493 23.7689ZM14.1512 16.8653L7.47591 10.1933C6.91024 10.8255 6.38244 11.4896 5.8959 12.1782C5.89085 12.1858 5.88495 12.1934 5.8799 12.201C5.43124 12.8382 5.6905 13.728 6.41022 14.026C8.09967 14.7263 9.01973 16.6103 8.44143 18.3452C7.79915 20.2771 5.6703 21.2258 3.82176 20.4606L3.75695 20.4337C3.04649 20.1391 2.24596 20.5818 2.11801 21.3411C2.11043 21.3849 2.1037 21.4228 2.09696 21.4666C1.97322 22.2292 1.88905 22.9271 1.84612 23.7689H11.3481C11.5737 21.0751 12.588 18.7855 14.1512 16.8653ZM25.2626 37.517V47.153C25.936 47.1084 26.862 47.02 27.6735 46.8836C27.7181 46.876 27.7518 46.8676 27.7972 46.8609C28.554 46.7296 28.9883 45.9324 28.6954 45.2236L28.6819 45.1967C27.9588 43.4508 28.7148 41.4094 30.4395 40.6384C32.2292 39.8387 34.3134 40.6771 35.0584 42.4768L35.0861 42.5433C35.3698 43.2294 36.199 43.4878 36.821 43.104C36.8438 43.0897 36.8673 43.0745 36.8892 43.0594C37.561 42.5804 38.199 42.0677 38.8043 41.5248L32.0297 34.7265C30.1382 36.2653 27.7038 37.2729 25.2626 37.517ZM33.7376 32.9722L40.5232 39.7806C41.0493 39.1922 41.5426 38.5886 42.0005 37.9514C42.0468 37.8908 42.0906 37.8343 42.1343 37.7721C42.5746 37.1441 42.3221 36.2737 41.6133 35.979L41.5889 35.9706C39.8447 35.2484 38.9356 33.2693 39.6107 31.5041C40.3102 29.674 42.3768 28.7927 44.1765 29.5385L44.2413 29.5654C44.9156 29.8441 45.6698 29.4611 45.8558 28.7733C45.8659 28.7354 45.8743 28.6521 45.8802 28.6125C46.0158 27.8069 46.1058 27.0518 46.1513 26.1259H36.6266C36.3555 28.7354 35.3143 31.0882 33.7376 32.9722ZM9.1965 41.5231C9.82951 42.0896 10.492 42.6183 11.1814 43.1048C11.1949 43.1149 11.2083 43.1242 11.2218 43.1343C11.8498 43.5745 12.7244 43.322 13.0173 42.6124L13.0274 42.5896C13.7505 40.8438 15.7295 39.9363 17.4947 40.6106C19.3247 41.3109 20.2061 43.3784 19.4611 45.1773L19.4342 45.2421C19.1395 45.9526 19.584 46.7531 20.3416 46.8811C20.345 46.8811 20.3669 46.8819 20.3702 46.8819C21.1724 47.0166 21.8955 47.1067 22.8215 47.1521V37.517C20.212 37.2729 17.903 36.2653 16.0132 34.7256L9.1965 41.5231ZM11.3725 26.1259H1.84696C1.8941 27.0518 1.98922 27.876 2.13653 28.7279C2.13737 28.7312 2.13737 28.759 2.13905 28.7624C2.27037 29.5175 3.06753 29.9703 3.77631 29.6774L3.80324 29.6723C5.54909 28.9484 7.59039 29.7094 8.36146 31.4342C9.1603 33.2239 8.32274 35.3107 6.52302 36.0548L6.45652 36.0834C5.74522 36.3781 5.49437 37.2594 5.94219 37.8865C5.96071 37.9118 5.97839 37.9379 5.99775 37.9631C6.45989 38.6063 6.95317 39.2199 7.47507 39.8025L14.2615 32.9705C12.6848 31.0882 11.6427 28.7354 11.3725 26.1259Z" fill="#FFA625"/>
<path d="M32.1618 15.1397C30.2485 13.5377 27.7038 12.4889 25.2626 12.2388V2.84781C26.1044 2.89327 26.8704 2.98334 27.6735 3.11803C27.676 3.11803 27.655 3.11887 27.6575 3.11887C28.4168 3.24682 28.8595 4.04737 28.5649 4.75784L28.538 4.82266C27.7922 6.62241 28.6743 8.68901 30.5052 9.38938C32.2696 10.0637 34.2486 9.15452 34.9725 7.41032L34.9826 7.38591C35.2755 6.67797 36.1502 6.42459 36.7773 6.86484C36.8396 6.90862 36.901 6.95239 36.9633 6.99869C37.6005 7.45662 38.2142 7.94907 38.8026 8.47519L32.1618 15.1397ZM22.8215 12.2388V7.54248V2.84613C21.8955 2.89075 21.1809 2.97913 20.3702 3.11382C20.334 3.11971 20.2886 3.12561 20.2524 3.13234C19.4813 3.26618 19.0259 4.07851 19.3256 4.80245C19.5108 5.2486 19.5966 5.7158 19.5966 6.1771C19.5966 7.45831 18.9089 8.69069 17.706 9.29257C15.8861 10.2042 13.7076 9.36917 12.9424 7.52228C12.6335 6.77645 11.7084 6.51129 11.0526 6.98185C11.0467 6.9869 11.04 6.99027 11.0341 6.99532C10.391 7.45746 9.77732 7.9516 9.19482 8.47351L15.8794 15.1388C17.7927 13.5377 20.1278 12.4889 22.8215 12.2388ZM36.6493 23.7689H46.153C46.1109 22.9271 46.0292 22.2368 45.9046 21.4666C45.8903 21.3799 45.8752 21.2957 45.8609 21.2098C45.7279 20.453 44.9316 20.0145 44.2219 20.3074L44.1293 20.347C42.2816 21.1122 40.1528 20.1626 39.5097 18.2316C38.9322 16.4958 39.8514 14.6127 41.5417 13.9132C42.2269 13.6295 42.4845 12.8028 42.104 12.1808C42.0897 12.1563 42.0746 12.1336 42.0577 12.11C41.5796 11.4383 41.0661 10.8002 40.5232 10.1941L33.8471 16.8636C35.4111 18.7855 36.4254 21.0751 36.6493 23.7689ZM14.1512 16.8653L7.47591 10.1933C6.91024 10.8255 6.38244 11.4896 5.8959 12.1782C5.89085 12.1858 5.88495 12.1934 5.8799 12.201C5.43124 12.8382 5.6905 13.728 6.41022 14.026C8.09967 14.7263 9.01973 16.6103 8.44143 18.3452C7.79915 20.2771 5.6703 21.2258 3.82176 20.4606L3.75695 20.4337C3.04649 20.1391 2.24596 20.5818 2.11801 21.3411C2.11043 21.3849 2.1037 21.4228 2.09696 21.4666C1.97322 22.2292 1.88905 22.9271 1.84612 23.7689H11.3481C11.5737 21.0751 12.588 18.7855 14.1512 16.8653ZM25.2626 37.517V47.153C25.936 47.1084 26.862 47.02 27.6735 46.8836C27.7181 46.876 27.7518 46.8676 27.7972 46.8609C28.554 46.7296 28.9883 45.9324 28.6954 45.2236L28.6819 45.1967C27.9588 43.4508 28.7148 41.4094 30.4395 40.6384C32.2292 39.8387 34.3134 40.6771 35.0584 42.4768L35.0861 42.5433C35.3698 43.2294 36.199 43.4878 36.821 43.104C36.8438 43.0897 36.8673 43.0745 36.8892 43.0594C37.561 42.5804 38.199 42.0677 38.8043 41.5248L32.0297 34.7265C30.1382 36.2653 27.7038 37.2729 25.2626 37.517ZM33.7376 32.9722L40.5232 39.7806C41.0493 39.1922 41.5426 38.5886 42.0005 37.9514C42.0468 37.8908 42.0906 37.8343 42.1343 37.7721C42.5746 37.1441 42.3221 36.2737 41.6133 35.979L41.5889 35.9706C39.8447 35.2484 38.9356 33.2693 39.6107 31.5041C40.3102 29.674 42.3768 28.7927 44.1765 29.5385L44.2413 29.5654C44.9156 29.8441 45.6698 29.4611 45.8558 28.7733C45.8659 28.7354 45.8743 28.6521 45.8802 28.6125C46.0158 27.8069 46.1058 27.0518 46.1513 26.1259H36.6266C36.3555 28.7354 35.3143 31.0882 33.7376 32.9722ZM9.1965 41.5231C9.82951 42.0896 10.492 42.6183 11.1814 43.1048C11.1949 43.1149 11.2083 43.1242 11.2218 43.1343C11.8498 43.5745 12.7244 43.322 13.0173 42.6124L13.0274 42.5896C13.7505 40.8438 15.7295 39.9363 17.4947 40.6106C19.3247 41.3109 20.2061 43.3784 19.4611 45.1773L19.4342 45.2421C19.1395 45.9526 19.584 46.7531 20.3416 46.8811C20.345 46.8811 20.3669 46.8819 20.3702 46.8819C21.1724 47.0166 21.8955 47.1067 22.8215 47.1521V37.517C20.212 37.2729 17.903 36.2653 16.0132 34.7256L9.1965 41.5231ZM11.3725 26.1259H1.84696C1.8941 27.0518 1.98922 27.876 2.13653 28.7279C2.13737 28.7312 2.13737 28.759 2.13905 28.7624C2.27037 29.5175 3.06753 29.9703 3.77631 29.6774L3.80324 29.6723C5.54909 28.9484 7.59039 29.7094 8.36146 31.4342C9.1603 33.2239 8.32274 35.3107 6.52302 36.0548L6.45652 36.0834C5.74522 36.3781 5.49437 37.2594 5.94219 37.8865C5.96071 37.9118 5.97839 37.9379 5.99775 37.9631C6.45989 38.6063 6.95317 39.2199 7.47507 39.8025L14.2615 32.9705C12.6848 31.0882 11.6427 28.7354 11.3725 26.1259Z" stroke="#FFA625" stroke-width="4" mask="url(#path-3-outside-1_102_19)"/>
</g>
<defs>
<clipPath id="clip0_102_19">
<rect width="48" height="47.9991" fill="white" transform="translate(0 1)"/>
</clipPath>
</defs>
</svg>
